<svg xmlns="http://www.w3.org/2000/svg" width="21.821" height="20" viewBox="0 0 21.821 20">
  <path id="buy" d="M21.631,25.32a.9.9,0,0,0-.706-.345H3.863L3.609,22.15a.9.9,0,0,0-.893-.816H.9a.9.9,0,1,0,0,1.792h1L2.88,34.07c0,.013,0,.026,0,.039a.9.9,0,0,0,.012.1l.036.4c0,.008,0,.015,0,.023a3.45,3.45,0,0,0,1.288,2.313,2.716,2.716,0,1,0,4.694.747h4.9A2.717,2.717,0,1,0,16.373,35.9H6.365a1.664,1.664,0,0,1-1.53-1.009l14.322-.842a.9.9,0,0,0,.817-.677l1.821-7.283a.9.9,0,0,0-.163-.769Z" transform="translate(0 -21.334)" fill="#fbf8f4"/>
</svg>
