<svg height="48pt" preserveAspectRatio="xMidYMid meet" viewBox="0 0 48 48" width="48pt" xmlns="http://www.w3.org/2000/svg"><path d="m73 380c-48-20-68-115-39-185 19-46 96-126 157-166l49-31 49 31c61 40 138 120 157 166 18 45 18 108-1 146-27 52-97 64-165 29l-40-20-40 20c-41 21-90 25-127 10zm123-35c10-8 30-14 44-14s34 6 44 14c30 23 109 19 131-5 24-26 24-104 1-149-21-40-82-101-136-137l-40-27-40 27c-54 36-115 97-136 138-24 46-24 120 0 147 23 25 101 29 132 6z" fill="#e82836" transform="matrix(.1 0 0 -.1 0 48)"/></svg>