<svg fill="none" height="25" viewBox="0 0 25 25" width="25" xmlns="http://www.w3.org/2000/svg"><path d="m12.4281.509399c-6.35002 0-11.496899 5.106251-11.496899 11.406201 0 2.1563.601559 4.1719 1.648439 5.8922l-2.075001 6.1188 6.364061-2.0266c1.70289.9353 3.615 1.424 5.5578 1.4203l.0016.0016c6.3484 0 11.4937-5.1063 11.4937-11.4063 0-6.29995-5.1437-11.406201-11.4937-11.406201zm5.6375 15.360901c-.2344.6516-1.3875 1.2797-1.9016 1.3282-.5156.0468-.5156.4203-3.3844-.6969-1.314-.5156-2.4046-1.4063-3.21402-2.236-.95782-.9828-1.52032-1.8843-1.59844-1.9875-.14063-.1843-1.15-1.5156-1.15-2.89058 0-1.375.72812-2.05.9875-2.33125.25625-.27968.5625-.35156.75-.35156s.375.02344.54062.02344c.16407 0 .39844-.09375.63282.46406.23437.5625.79842 1.9375.86872 2.07813.0703.14062.1172.30312.0235.4875-.0938.1875-.1407.30466-.2813.46876-.1406.1609-.2969.364-.42186.489-.14219.1391-.28906.2907-.12188.5688.16407.2812.72974 1.1969 1.56724 1.9375 1.0781.9531 1.9843 1.2469 2.2671 1.3875.2844.1406.4454.1172.6125-.0703.1625-.186.7032-.8141.8891-1.0922.1891-.2828.375-.2344.6344-.1406.2578.0922 1.6453.7672 1.925.9093.2812.1375.4703.2079.5406.3235.0703.1172.0703.6734-.1656 1.3312z" fill="#fff"/></svg>